<mxfile host="app.diagrams.net" modified="2023-10-24T10:58:57.173Z" agent="Mozilla/5.0 (Macintosh; Intel Mac OS X 10_15_7) AppleWebKit/537.36 (KHTML, like Gecko) Chrome/118.0.0.0 Safari/537.36" etag="WxJpX5FK6iqJQRcr33CX" version="22.0.6" type="github">
  <diagram name="第 1 页" id="WTBXMF-47c1gRvCRbFfg">
    <mxGraphModel dx="662" dy="443" grid="0" gridSize="10" guides="1" tooltips="1" connect="1" arrows="1" fold="1" page="1" pageScale="1" pageWidth="1200" pageHeight="1920" math="0" shadow="0">
      <root>
        <mxCell id="0" />
        <mxCell id="1" parent="0" />
        <mxCell id="7vhGW-fj3BiN3b13xz7E-1" value="" style="ellipse;whiteSpace=wrap;html=1;aspect=fixed;" vertex="1" parent="1">
          <mxGeometry x="180" y="366" width="13" height="13" as="geometry" />
        </mxCell>
        <mxCell id="7vhGW-fj3BiN3b13xz7E-3" value="" style="ellipse;whiteSpace=wrap;html=1;aspect=fixed;" vertex="1" parent="1">
          <mxGeometry x="198" y="366" width="13" height="13" as="geometry" />
        </mxCell>
        <mxCell id="7vhGW-fj3BiN3b13xz7E-6" value="" style="ellipse;whiteSpace=wrap;html=1;aspect=fixed;" vertex="1" parent="1">
          <mxGeometry x="216" y="366" width="13" height="13" as="geometry" />
        </mxCell>
        <mxCell id="7vhGW-fj3BiN3b13xz7E-7" value="" style="ellipse;whiteSpace=wrap;html=1;aspect=fixed;" vertex="1" parent="1">
          <mxGeometry x="234" y="366" width="13" height="13" as="geometry" />
        </mxCell>
        <mxCell id="7vhGW-fj3BiN3b13xz7E-8" value="" style="ellipse;whiteSpace=wrap;html=1;aspect=fixed;" vertex="1" parent="1">
          <mxGeometry x="275" y="366" width="13" height="13" as="geometry" />
        </mxCell>
        <mxCell id="7vhGW-fj3BiN3b13xz7E-9" value="" style="ellipse;whiteSpace=wrap;html=1;aspect=fixed;" vertex="1" parent="1">
          <mxGeometry x="293" y="366" width="13" height="13" as="geometry" />
        </mxCell>
        <mxCell id="7vhGW-fj3BiN3b13xz7E-10" value="" style="ellipse;whiteSpace=wrap;html=1;aspect=fixed;" vertex="1" parent="1">
          <mxGeometry x="311" y="366" width="13" height="13" as="geometry" />
        </mxCell>
        <mxCell id="7vhGW-fj3BiN3b13xz7E-11" value="" style="ellipse;whiteSpace=wrap;html=1;aspect=fixed;" vertex="1" parent="1">
          <mxGeometry x="329" y="366" width="13" height="13" as="geometry" />
        </mxCell>
        <mxCell id="7vhGW-fj3BiN3b13xz7E-13" value="" style="endArrow=none;dashed=1;html=1;dashPattern=1 3;strokeWidth=2;rounded=0;" edge="1" parent="1">
          <mxGeometry width="50" height="50" relative="1" as="geometry">
            <mxPoint x="251" y="372.39" as="sourcePoint" />
            <mxPoint x="271" y="372.39" as="targetPoint" />
          </mxGeometry>
        </mxCell>
        <mxCell id="7vhGW-fj3BiN3b13xz7E-14" value="" style="shape=curlyBracket;whiteSpace=wrap;html=1;rounded=1;flipH=1;labelPosition=right;verticalLabelPosition=middle;align=left;verticalAlign=middle;flipV=1;direction=north;" vertex="1" parent="1">
          <mxGeometry x="178" y="336" width="168" height="30" as="geometry" />
        </mxCell>
        <mxCell id="7vhGW-fj3BiN3b13xz7E-15" value="" style="rounded=1;whiteSpace=wrap;html=1;" vertex="1" parent="1">
          <mxGeometry x="240.5" y="304" width="43" height="28" as="geometry" />
        </mxCell>
        <mxCell id="7vhGW-fj3BiN3b13xz7E-16" value="" style="endArrow=classic;html=1;rounded=0;" edge="1" parent="1">
          <mxGeometry width="50" height="50" relative="1" as="geometry">
            <mxPoint x="157.5" y="396" as="sourcePoint" />
            <mxPoint x="1100.5" y="396" as="targetPoint" />
          </mxGeometry>
        </mxCell>
        <mxCell id="7vhGW-fj3BiN3b13xz7E-17" value="" style="ellipse;whiteSpace=wrap;html=1;aspect=fixed;" vertex="1" parent="1">
          <mxGeometry x="359" y="366" width="13" height="13" as="geometry" />
        </mxCell>
        <mxCell id="7vhGW-fj3BiN3b13xz7E-18" value="" style="ellipse;whiteSpace=wrap;html=1;aspect=fixed;" vertex="1" parent="1">
          <mxGeometry x="377" y="366" width="13" height="13" as="geometry" />
        </mxCell>
        <mxCell id="7vhGW-fj3BiN3b13xz7E-19" value="" style="ellipse;whiteSpace=wrap;html=1;aspect=fixed;" vertex="1" parent="1">
          <mxGeometry x="395" y="366" width="13" height="13" as="geometry" />
        </mxCell>
        <mxCell id="7vhGW-fj3BiN3b13xz7E-20" value="" style="ellipse;whiteSpace=wrap;html=1;aspect=fixed;" vertex="1" parent="1">
          <mxGeometry x="413" y="366" width="13" height="13" as="geometry" />
        </mxCell>
        <mxCell id="7vhGW-fj3BiN3b13xz7E-21" value="" style="ellipse;whiteSpace=wrap;html=1;aspect=fixed;" vertex="1" parent="1">
          <mxGeometry x="454" y="366" width="13" height="13" as="geometry" />
        </mxCell>
        <mxCell id="7vhGW-fj3BiN3b13xz7E-22" value="" style="ellipse;whiteSpace=wrap;html=1;aspect=fixed;" vertex="1" parent="1">
          <mxGeometry x="472" y="366" width="13" height="13" as="geometry" />
        </mxCell>
        <mxCell id="7vhGW-fj3BiN3b13xz7E-23" value="" style="ellipse;whiteSpace=wrap;html=1;aspect=fixed;" vertex="1" parent="1">
          <mxGeometry x="490" y="366" width="13" height="13" as="geometry" />
        </mxCell>
        <mxCell id="7vhGW-fj3BiN3b13xz7E-24" value="" style="ellipse;whiteSpace=wrap;html=1;aspect=fixed;" vertex="1" parent="1">
          <mxGeometry x="508" y="366" width="13" height="13" as="geometry" />
        </mxCell>
        <mxCell id="7vhGW-fj3BiN3b13xz7E-25" value="" style="endArrow=none;dashed=1;html=1;dashPattern=1 3;strokeWidth=2;rounded=0;" edge="1" parent="1">
          <mxGeometry width="50" height="50" relative="1" as="geometry">
            <mxPoint x="430" y="372.39" as="sourcePoint" />
            <mxPoint x="450" y="372.39" as="targetPoint" />
          </mxGeometry>
        </mxCell>
        <mxCell id="7vhGW-fj3BiN3b13xz7E-26" value="" style="shape=curlyBracket;whiteSpace=wrap;html=1;rounded=1;flipH=1;labelPosition=right;verticalLabelPosition=middle;align=left;verticalAlign=middle;flipV=1;direction=north;" vertex="1" parent="1">
          <mxGeometry x="357" y="336" width="168" height="30" as="geometry" />
        </mxCell>
        <mxCell id="7vhGW-fj3BiN3b13xz7E-27" value="" style="rounded=1;whiteSpace=wrap;html=1;" vertex="1" parent="1">
          <mxGeometry x="419.5" y="304" width="43" height="28" as="geometry" />
        </mxCell>
        <mxCell id="7vhGW-fj3BiN3b13xz7E-40" value="" style="endArrow=none;dashed=1;html=1;dashPattern=1 3;strokeWidth=2;rounded=0;" edge="1" parent="1">
          <mxGeometry width="50" height="50" relative="1" as="geometry">
            <mxPoint x="535" y="365.31" as="sourcePoint" />
            <mxPoint x="577" y="365.31" as="targetPoint" />
          </mxGeometry>
        </mxCell>
        <mxCell id="7vhGW-fj3BiN3b13xz7E-52" value="" style="ellipse;whiteSpace=wrap;html=1;aspect=fixed;" vertex="1" parent="1">
          <mxGeometry x="587" y="366" width="13" height="13" as="geometry" />
        </mxCell>
        <mxCell id="7vhGW-fj3BiN3b13xz7E-53" value="" style="ellipse;whiteSpace=wrap;html=1;aspect=fixed;" vertex="1" parent="1">
          <mxGeometry x="605" y="366" width="13" height="13" as="geometry" />
        </mxCell>
        <mxCell id="7vhGW-fj3BiN3b13xz7E-54" value="" style="ellipse;whiteSpace=wrap;html=1;aspect=fixed;" vertex="1" parent="1">
          <mxGeometry x="623" y="366" width="13" height="13" as="geometry" />
        </mxCell>
        <mxCell id="7vhGW-fj3BiN3b13xz7E-55" value="" style="ellipse;whiteSpace=wrap;html=1;aspect=fixed;" vertex="1" parent="1">
          <mxGeometry x="641" y="366" width="13" height="13" as="geometry" />
        </mxCell>
        <mxCell id="7vhGW-fj3BiN3b13xz7E-56" value="" style="ellipse;whiteSpace=wrap;html=1;aspect=fixed;" vertex="1" parent="1">
          <mxGeometry x="682" y="366" width="13" height="13" as="geometry" />
        </mxCell>
        <mxCell id="7vhGW-fj3BiN3b13xz7E-57" value="" style="ellipse;whiteSpace=wrap;html=1;aspect=fixed;" vertex="1" parent="1">
          <mxGeometry x="700" y="366" width="13" height="13" as="geometry" />
        </mxCell>
        <mxCell id="7vhGW-fj3BiN3b13xz7E-58" value="" style="ellipse;whiteSpace=wrap;html=1;aspect=fixed;" vertex="1" parent="1">
          <mxGeometry x="718" y="366" width="13" height="13" as="geometry" />
        </mxCell>
        <mxCell id="7vhGW-fj3BiN3b13xz7E-59" value="" style="ellipse;whiteSpace=wrap;html=1;aspect=fixed;" vertex="1" parent="1">
          <mxGeometry x="736" y="366" width="13" height="13" as="geometry" />
        </mxCell>
        <mxCell id="7vhGW-fj3BiN3b13xz7E-60" value="" style="endArrow=none;dashed=1;html=1;dashPattern=1 3;strokeWidth=2;rounded=0;" edge="1" parent="1">
          <mxGeometry width="50" height="50" relative="1" as="geometry">
            <mxPoint x="658" y="372.39" as="sourcePoint" />
            <mxPoint x="678" y="372.39" as="targetPoint" />
          </mxGeometry>
        </mxCell>
        <mxCell id="7vhGW-fj3BiN3b13xz7E-61" value="" style="shape=curlyBracket;whiteSpace=wrap;html=1;rounded=1;flipH=1;labelPosition=right;verticalLabelPosition=middle;align=left;verticalAlign=middle;flipV=1;direction=north;" vertex="1" parent="1">
          <mxGeometry x="585" y="336" width="168" height="30" as="geometry" />
        </mxCell>
        <mxCell id="7vhGW-fj3BiN3b13xz7E-62" value="" style="rounded=1;whiteSpace=wrap;html=1;" vertex="1" parent="1">
          <mxGeometry x="647.5" y="304" width="43" height="28" as="geometry" />
        </mxCell>
        <mxCell id="7vhGW-fj3BiN3b13xz7E-63" value="Row Data" style="text;html=1;strokeColor=none;fillColor=none;align=center;verticalAlign=middle;whiteSpace=wrap;rounded=0;" vertex="1" parent="1">
          <mxGeometry x="81" y="363" width="60" height="30" as="geometry" />
        </mxCell>
        <mxCell id="7vhGW-fj3BiN3b13xz7E-64" value="Aggregation Data" style="text;html=1;strokeColor=none;fillColor=none;align=center;verticalAlign=middle;whiteSpace=wrap;rounded=0;" vertex="1" parent="1">
          <mxGeometry x="61" y="303" width="100" height="30" as="geometry" />
        </mxCell>
        <mxCell id="7vhGW-fj3BiN3b13xz7E-65" value="" style="shape=flexArrow;endArrow=classic;html=1;rounded=0;width=8;" edge="1" parent="1">
          <mxGeometry width="50" height="50" relative="1" as="geometry">
            <mxPoint x="110.8" y="369" as="sourcePoint" />
            <mxPoint x="110.8" y="328" as="targetPoint" />
          </mxGeometry>
        </mxCell>
        <mxCell id="7vhGW-fj3BiN3b13xz7E-67" value="&lt;font style=&quot;font-size: 8px;&quot;&gt;Rules&amp;amp;Aggregation Size&lt;/font&gt;" style="text;html=1;strokeColor=none;fillColor=none;align=center;verticalAlign=middle;whiteSpace=wrap;rounded=0;" vertex="1" parent="1">
          <mxGeometry x="13" y="339" width="90" height="30" as="geometry" />
        </mxCell>
        <mxCell id="7vhGW-fj3BiN3b13xz7E-68" value="" style="shape=curlyBracket;whiteSpace=wrap;html=1;rounded=1;flipH=1;labelPosition=right;verticalLabelPosition=middle;align=left;verticalAlign=middle;flipV=1;direction=north;" vertex="1" parent="1">
          <mxGeometry x="235" y="260" width="460" height="45" as="geometry" />
        </mxCell>
        <mxCell id="7vhGW-fj3BiN3b13xz7E-69" value="" style="endArrow=none;dashed=1;html=1;dashPattern=1 3;strokeWidth=2;rounded=0;" edge="1" parent="1">
          <mxGeometry width="50" height="50" relative="1" as="geometry">
            <mxPoint x="534" y="317.68" as="sourcePoint" />
            <mxPoint x="576" y="317.68" as="targetPoint" />
          </mxGeometry>
        </mxCell>
        <mxCell id="7vhGW-fj3BiN3b13xz7E-109" value="" style="edgeStyle=orthogonalEdgeStyle;rounded=0;orthogonalLoop=1;jettySize=auto;html=1;exitX=0.5;exitY=0;exitDx=0;exitDy=0;entryX=0;entryY=0.5;entryDx=0;entryDy=0;" edge="1" parent="1" source="7vhGW-fj3BiN3b13xz7E-70" target="7vhGW-fj3BiN3b13xz7E-108">
          <mxGeometry relative="1" as="geometry" />
        </mxCell>
        <mxCell id="7vhGW-fj3BiN3b13xz7E-111" value="AVERAGE" style="edgeLabel;html=1;align=center;verticalAlign=middle;resizable=0;points=[];" vertex="1" connectable="0" parent="7vhGW-fj3BiN3b13xz7E-109">
          <mxGeometry x="-0.0692" y="1" relative="1" as="geometry">
            <mxPoint as="offset" />
          </mxGeometry>
        </mxCell>
        <mxCell id="7vhGW-fj3BiN3b13xz7E-70" value="" style="rounded=0;whiteSpace=wrap;html=1;" vertex="1" parent="1">
          <mxGeometry x="437" y="228" width="56" height="32" as="geometry" />
        </mxCell>
        <mxCell id="7vhGW-fj3BiN3b13xz7E-71" value="Caching Data" style="text;html=1;strokeColor=none;fillColor=none;align=center;verticalAlign=middle;whiteSpace=wrap;rounded=0;" vertex="1" parent="1">
          <mxGeometry x="61" y="225" width="100" height="30" as="geometry" />
        </mxCell>
        <mxCell id="7vhGW-fj3BiN3b13xz7E-72" value="" style="shape=flexArrow;endArrow=classic;html=1;rounded=0;width=8;" edge="1" parent="1">
          <mxGeometry width="50" height="50" relative="1" as="geometry">
            <mxPoint x="110.67999999999999" y="310" as="sourcePoint" />
            <mxPoint x="110.67999999999999" y="250" as="targetPoint" />
          </mxGeometry>
        </mxCell>
        <mxCell id="7vhGW-fj3BiN3b13xz7E-73" value="&lt;font style=&quot;font-size: 8px;&quot;&gt;Caching Size&amp;amp;Slide Step&lt;/font&gt;" style="text;html=1;strokeColor=none;fillColor=none;align=center;verticalAlign=middle;whiteSpace=wrap;rounded=0;" vertex="1" parent="1">
          <mxGeometry x="8" y="267.5" width="100" height="30" as="geometry" />
        </mxCell>
        <mxCell id="7vhGW-fj3BiN3b13xz7E-74" value="" style="shape=curlyBracket;whiteSpace=wrap;html=1;rounded=1;flipH=1;labelPosition=right;verticalLabelPosition=middle;align=left;verticalAlign=middle;flipV=1;direction=north;strokeColor=#0cca45;" vertex="1" parent="1">
          <mxGeometry x="415" y="265.5" width="460" height="45" as="geometry" />
        </mxCell>
        <mxCell id="7vhGW-fj3BiN3b13xz7E-105" value="" style="edgeStyle=orthogonalEdgeStyle;rounded=0;orthogonalLoop=1;jettySize=auto;html=1;entryX=0;entryY=0.5;entryDx=0;entryDy=0;exitX=0.5;exitY=0;exitDx=0;exitDy=0;fontColor=#3ddd1d;strokeColor=#38e22c;" edge="1" parent="1" source="7vhGW-fj3BiN3b13xz7E-75" target="7vhGW-fj3BiN3b13xz7E-104">
          <mxGeometry relative="1" as="geometry" />
        </mxCell>
        <mxCell id="7vhGW-fj3BiN3b13xz7E-106" value="AVERAGE" style="edgeLabel;html=1;align=center;verticalAlign=middle;resizable=0;points=[];fontColor=#3ddd1d;" vertex="1" connectable="0" parent="7vhGW-fj3BiN3b13xz7E-105">
          <mxGeometry x="0.3628" y="1" relative="1" as="geometry">
            <mxPoint as="offset" />
          </mxGeometry>
        </mxCell>
        <mxCell id="7vhGW-fj3BiN3b13xz7E-75" value="" style="rounded=0;whiteSpace=wrap;html=1;strokeColor=#0cca45;" vertex="1" parent="1">
          <mxGeometry x="617" y="228" width="56" height="32" as="geometry" />
        </mxCell>
        <mxCell id="7vhGW-fj3BiN3b13xz7E-77" value="" style="endArrow=classic;startArrow=classic;html=1;rounded=0;strokeColor=#2ee316;" edge="1" parent="1">
          <mxGeometry width="50" height="50" relative="1" as="geometry">
            <mxPoint x="293" y="317.68" as="sourcePoint" />
            <mxPoint x="412" y="318" as="targetPoint" />
          </mxGeometry>
        </mxCell>
        <mxCell id="7vhGW-fj3BiN3b13xz7E-79" value="&lt;font style=&quot;font-size: 8px;&quot;&gt;Slide Step&lt;/font&gt;" style="text;html=1;strokeColor=none;fillColor=none;align=center;verticalAlign=middle;whiteSpace=wrap;rounded=0;fontColor=#51cd0e;" vertex="1" parent="1">
          <mxGeometry x="316" y="293" width="74" height="30" as="geometry" />
        </mxCell>
        <mxCell id="7vhGW-fj3BiN3b13xz7E-80" value="&lt;font style=&quot;font-size: 8px;&quot;&gt;Aggregation Size&lt;/font&gt;" style="text;html=1;strokeColor=none;fillColor=none;align=center;verticalAlign=middle;whiteSpace=wrap;rounded=0;" vertex="1" parent="1">
          <mxGeometry x="270" y="328" width="72" height="30" as="geometry" />
        </mxCell>
        <mxCell id="7vhGW-fj3BiN3b13xz7E-81" value="&lt;font style=&quot;font-size: 8px;&quot;&gt;Caching Size&lt;/font&gt;" style="text;html=1;strokeColor=none;fillColor=none;align=center;verticalAlign=middle;whiteSpace=wrap;rounded=0;" vertex="1" parent="1">
          <mxGeometry x="323" y="258" width="72" height="30" as="geometry" />
        </mxCell>
        <mxCell id="7vhGW-fj3BiN3b13xz7E-82" value="" style="ellipse;whiteSpace=wrap;html=1;aspect=fixed;" vertex="1" parent="1">
          <mxGeometry x="764" y="365" width="13" height="13" as="geometry" />
        </mxCell>
        <mxCell id="7vhGW-fj3BiN3b13xz7E-83" value="" style="ellipse;whiteSpace=wrap;html=1;aspect=fixed;" vertex="1" parent="1">
          <mxGeometry x="782" y="365" width="13" height="13" as="geometry" />
        </mxCell>
        <mxCell id="7vhGW-fj3BiN3b13xz7E-84" value="" style="ellipse;whiteSpace=wrap;html=1;aspect=fixed;" vertex="1" parent="1">
          <mxGeometry x="800" y="365" width="13" height="13" as="geometry" />
        </mxCell>
        <mxCell id="7vhGW-fj3BiN3b13xz7E-85" value="" style="ellipse;whiteSpace=wrap;html=1;aspect=fixed;" vertex="1" parent="1">
          <mxGeometry x="818" y="365" width="13" height="13" as="geometry" />
        </mxCell>
        <mxCell id="7vhGW-fj3BiN3b13xz7E-86" value="" style="ellipse;whiteSpace=wrap;html=1;aspect=fixed;" vertex="1" parent="1">
          <mxGeometry x="859" y="365" width="13" height="13" as="geometry" />
        </mxCell>
        <mxCell id="7vhGW-fj3BiN3b13xz7E-87" value="" style="ellipse;whiteSpace=wrap;html=1;aspect=fixed;" vertex="1" parent="1">
          <mxGeometry x="877" y="365" width="13" height="13" as="geometry" />
        </mxCell>
        <mxCell id="7vhGW-fj3BiN3b13xz7E-88" value="" style="ellipse;whiteSpace=wrap;html=1;aspect=fixed;" vertex="1" parent="1">
          <mxGeometry x="895" y="365" width="13" height="13" as="geometry" />
        </mxCell>
        <mxCell id="7vhGW-fj3BiN3b13xz7E-89" value="" style="ellipse;whiteSpace=wrap;html=1;aspect=fixed;" vertex="1" parent="1">
          <mxGeometry x="913" y="365" width="13" height="13" as="geometry" />
        </mxCell>
        <mxCell id="7vhGW-fj3BiN3b13xz7E-90" value="" style="endArrow=none;dashed=1;html=1;dashPattern=1 3;strokeWidth=2;rounded=0;" edge="1" parent="1">
          <mxGeometry width="50" height="50" relative="1" as="geometry">
            <mxPoint x="835" y="371.39" as="sourcePoint" />
            <mxPoint x="855" y="371.39" as="targetPoint" />
          </mxGeometry>
        </mxCell>
        <mxCell id="7vhGW-fj3BiN3b13xz7E-91" value="" style="shape=curlyBracket;whiteSpace=wrap;html=1;rounded=1;flipH=1;labelPosition=right;verticalLabelPosition=middle;align=left;verticalAlign=middle;flipV=1;direction=north;" vertex="1" parent="1">
          <mxGeometry x="762" y="335" width="168" height="30" as="geometry" />
        </mxCell>
        <mxCell id="7vhGW-fj3BiN3b13xz7E-110" style="edgeStyle=orthogonalEdgeStyle;rounded=0;orthogonalLoop=1;jettySize=auto;html=1;entryX=1;entryY=0.5;entryDx=0;entryDy=0;exitX=0.5;exitY=0;exitDx=0;exitDy=0;" edge="1" parent="1" source="7vhGW-fj3BiN3b13xz7E-92" target="7vhGW-fj3BiN3b13xz7E-108">
          <mxGeometry relative="1" as="geometry" />
        </mxCell>
        <mxCell id="7vhGW-fj3BiN3b13xz7E-92" value="" style="rounded=1;whiteSpace=wrap;html=1;" vertex="1" parent="1">
          <mxGeometry x="824.5" y="303" width="43" height="28" as="geometry" />
        </mxCell>
        <mxCell id="7vhGW-fj3BiN3b13xz7E-93" value="" style="ellipse;whiteSpace=wrap;html=1;aspect=fixed;strokeColor=#121111;" vertex="1" parent="1">
          <mxGeometry x="941" y="366" width="13" height="13" as="geometry" />
        </mxCell>
        <mxCell id="7vhGW-fj3BiN3b13xz7E-94" value="" style="ellipse;whiteSpace=wrap;html=1;aspect=fixed;strokeColor=#121111;" vertex="1" parent="1">
          <mxGeometry x="959" y="366" width="13" height="13" as="geometry" />
        </mxCell>
        <mxCell id="7vhGW-fj3BiN3b13xz7E-95" value="" style="ellipse;whiteSpace=wrap;html=1;aspect=fixed;strokeColor=#121111;" vertex="1" parent="1">
          <mxGeometry x="977" y="366" width="13" height="13" as="geometry" />
        </mxCell>
        <mxCell id="7vhGW-fj3BiN3b13xz7E-96" value="" style="ellipse;whiteSpace=wrap;html=1;aspect=fixed;strokeColor=#d51010;" vertex="1" parent="1">
          <mxGeometry x="995" y="366" width="13" height="13" as="geometry" />
        </mxCell>
        <mxCell id="7vhGW-fj3BiN3b13xz7E-97" value="" style="ellipse;whiteSpace=wrap;html=1;aspect=fixed;strokeColor=#d51010;" vertex="1" parent="1">
          <mxGeometry x="1036" y="366" width="13" height="13" as="geometry" />
        </mxCell>
        <mxCell id="7vhGW-fj3BiN3b13xz7E-98" value="" style="ellipse;whiteSpace=wrap;html=1;aspect=fixed;strokeColor=#d51010;" vertex="1" parent="1">
          <mxGeometry x="1054" y="366" width="13" height="13" as="geometry" />
        </mxCell>
        <mxCell id="7vhGW-fj3BiN3b13xz7E-99" value="" style="ellipse;whiteSpace=wrap;html=1;aspect=fixed;strokeColor=#d51010;" vertex="1" parent="1">
          <mxGeometry x="1072" y="366" width="13" height="13" as="geometry" />
        </mxCell>
        <mxCell id="7vhGW-fj3BiN3b13xz7E-100" value="" style="ellipse;whiteSpace=wrap;html=1;aspect=fixed;strokeColor=#d51010;" vertex="1" parent="1">
          <mxGeometry x="1090" y="366" width="13" height="13" as="geometry" />
        </mxCell>
        <mxCell id="7vhGW-fj3BiN3b13xz7E-101" value="" style="endArrow=none;dashed=1;html=1;dashPattern=1 3;strokeWidth=2;rounded=0;strokeColor=#d51010;" edge="1" parent="1">
          <mxGeometry width="50" height="50" relative="1" as="geometry">
            <mxPoint x="1012" y="372.39" as="sourcePoint" />
            <mxPoint x="1032" y="372.39" as="targetPoint" />
          </mxGeometry>
        </mxCell>
        <mxCell id="7vhGW-fj3BiN3b13xz7E-102" value="" style="shape=curlyBracket;whiteSpace=wrap;html=1;rounded=1;flipH=1;labelPosition=right;verticalLabelPosition=middle;align=left;verticalAlign=middle;flipV=1;direction=north;strokeColor=#d51010;" vertex="1" parent="1">
          <mxGeometry x="939" y="336" width="168" height="30" as="geometry" />
        </mxCell>
        <mxCell id="7vhGW-fj3BiN3b13xz7E-107" style="edgeStyle=orthogonalEdgeStyle;rounded=0;orthogonalLoop=1;jettySize=auto;html=1;entryX=1;entryY=0.5;entryDx=0;entryDy=0;exitX=0.5;exitY=0;exitDx=0;exitDy=0;strokeColor=#dc0909;" edge="1" parent="1" source="7vhGW-fj3BiN3b13xz7E-103" target="7vhGW-fj3BiN3b13xz7E-104">
          <mxGeometry relative="1" as="geometry" />
        </mxCell>
        <mxCell id="7vhGW-fj3BiN3b13xz7E-103" value="" style="rounded=1;whiteSpace=wrap;html=1;strokeColor=#d51010;" vertex="1" parent="1">
          <mxGeometry x="1001.5" y="304" width="43" height="28" as="geometry" />
        </mxCell>
        <mxCell id="7vhGW-fj3BiN3b13xz7E-104" value="Difference&amp;gt;Threshold" style="rhombus;whiteSpace=wrap;html=1;strokeColor=#0cca45;rounded=0;fontSize=8;" vertex="1" parent="1">
          <mxGeometry x="879.5" y="131" width="80" height="53" as="geometry" />
        </mxCell>
        <mxCell id="7vhGW-fj3BiN3b13xz7E-108" value="&lt;font style=&quot;font-size: 8px;&quot;&gt;Difference&amp;lt;Threshold&lt;/font&gt;" style="rhombus;whiteSpace=wrap;html=1;rounded=0;" vertex="1" parent="1">
          <mxGeometry x="720" y="176" width="80" height="49" as="geometry" />
        </mxCell>
        <mxCell id="7vhGW-fj3BiN3b13xz7E-112" value="" style="shape=flexArrow;endArrow=classic;html=1;rounded=0;width=8;fontColor=#33dc04;labelBorderColor=#27f40b;strokeColor=#0bea43;" edge="1" parent="1">
          <mxGeometry width="50" height="50" relative="1" as="geometry">
            <mxPoint x="781.9999999999999" y="147" as="sourcePoint" />
            <mxPoint x="781.9999999999999" y="87" as="targetPoint" />
          </mxGeometry>
        </mxCell>
        <mxCell id="7vhGW-fj3BiN3b13xz7E-115" value="&lt;font style=&quot;font-size: 11px;&quot;&gt;Normal Data&lt;/font&gt;" style="rounded=1;whiteSpace=wrap;html=1;" vertex="1" parent="1">
          <mxGeometry x="738" y="50" width="101" height="34" as="geometry" />
        </mxCell>
      </root>
    </mxGraphModel>
  </diagram>
</mxfile>
